<?xml version="1.0" encoding="utf-8"?>
<!-- Generator: Adobe Illustrator 19.0.0, SVG Export Plug-In . SVG Version: 6.00 Build 0)  -->
<svg version="1.1" id="Layer_1" xmlns="http://www.w3.org/2000/svg" xmlns:xlink="http://www.w3.org/1999/xlink" x="0px" y="0px"
	 width="512px" height="512px" viewBox="-49 141 512 512" style="enable-background:new -49 141 512 512;" xml:space="preserve">
<style type="text/css">
	.st0{fill:#00AFF0;}
	.st1{fill:#FFFFFF;}
</style>
<g>
	<path class="st0" d="M436.9832458,448.8152466c3.5079346-15.9064026,5.3674927-32.3472595,5.3674927-49.260498
		c0-126.7505798-104.1950989-229.5267487-232.7599487-229.5267487c-13.5577545,0-26.8574982,1.1592712-39.7903748,3.3555145
		c-20.7998505-12.9328613-45.4158783-20.4362793-71.7992859-20.4362793C23.4243469,152.9472351-37,212.547348-37,286.0871887
		c0,24.5540161,6.7864094,47.5517578,18.544939,67.3330383c-3.0958481,14.8995972-4.7124577,30.3336182-4.7124577,46.1345215
		c0,126.7958374,104.1950912,225.7440796,232.744873,225.7440796c14.5645752,0,28.8091736-1.3267822,42.6115112-3.8430176
		c19.0173645,10.0648193,40.735199,19.5969849,63.8250732,19.5969849C390.5756531,641.0527954,451,581.4677734,451,507.927887
		C451,486.7142944,445.9508057,466.6281128,436.9832458,448.8152466z"/>
	<path class="st1" d="M315.752594,493.2410278c-8.9826355,12.7653503-22.1299744,22.8000488-39.4385681,30.0136719
		c-17.3103027,7.2738647-37.8068542,10.8740234-61.5216064,10.8740234c-28.442276,0-51.8990326-4.9420166-70.3987427-14.8393555
		c-13.0853119-7.1063843-23.7448883-16.6234436-31.9502258-28.4891663
		c-8.1751862-11.8657532-12.2761841-23.4249268-12.2761841-34.6658325c0-6.4966125,2.4559021-12.0785217,7.3660431-16.70047
		c4.910141-4.682312,11.178894-6.9841003,18.7593689-6.9841003c6.1615448,0,11.3916626,1.7841187,15.6316986,5.4294434
		c4.2702026,3.6151733,7.9155121,8.9675598,10.9041595,16.0890503c3.6754761,8.4649963,7.6257019,15.5261536,11.9109802,21.1834412
		c4.240036,5.6572876,10.2491302,10.3546753,17.9653015,14.0301819c7.7480011,3.6452942,17.9200897,5.5048218,30.4860687,5.5048218
		c17.2952271,0,31.3555298-3.6905518,42.1842957-11.1185608c10.7969666-7.3962097,16.2264099-16.6837463,16.2264099-27.7721863
		c0-8.7850037-2.9283142-15.9684143-8.7548218-21.4129639c-5.8415527-5.4897461-13.3751221-9.6846008-22.6174622-12.5660095
		c-9.2272339-2.9132385-21.5804749-5.9940186-37.0747986-9.2423096
		c-20.6959534-4.4377136-38.0363922-9.6846008-51.974411-15.6316833
		c-13.9547882-5.9940186-25.0566254-14.1223145-33.2317963-24.4166565
		c-8.2053528-10.3395996-12.2929382-23.150177-12.2929382-38.4468384c0-14.6097717,4.3154297-27.5577393,12.9781189-38.8890991
		c8.6476135-11.346405,21.1382141-20.0543213,37.547226-26.1555481c16.3788452-6.0995789,35.657547-9.1351013,57.7858429-9.1351013
		c17.6905518,0,33.0022888,2.028717,45.9200745,6.0392456c12.9177856,4.0574341,23.6091919,9.4249268,32.1177673,16.1208801
		c8.5252991,6.6959229,14.7622375,13.7101746,18.6822815,21.0762329c3.9351501,7.3208008,5.901886,14.549469,5.901886,21.503418
		c0,6.3893738-2.4408264,12.1856995-7.3509827,17.2951965c-4.9101257,5.1245728-11.0415344,7.7010803-18.3774109,7.7010803
		c-6.6959229,0-11.7736206-1.5563049-15.2514038-4.6203308c-3.4778137-3.0807495-7.2437744-8.1131897-11.2861328-15.1140442
		c-5.2619324-10.0045471-11.5290222-17.8128662-18.8799744-23.4098206
		c-7.3509827-5.6120911-19.1246033-8.4181213-35.382843-8.4181213c-15.0520477,0-27.2226868,3.0204773-36.4649963,9.1351013
		c-9.2423096,6.0694275-13.8777161,13.4203796-13.8777161,21.9758301c0,5.2770386,1.6015472,9.8822632,4.7275391,13.7403564
		c3.1260071,3.8882446,7.4581909,7.1683655,12.9931946,9.9291687c5.4747009,2.7758789,11.0566101,4.9419556,16.6837463,6.5418091
		c5.627121,1.5713806,14.9465027,3.8430176,27.9396973,6.8634644c16.2264099,3.4929199,30.9434204,7.3660583,44.1208801,11.5759583
		c13.162384,4.2249756,24.3865356,9.3645935,33.6288452,15.3569641
		c9.2272339,6.0392151,16.4559021,13.6950989,21.6257019,22.9374084c5.1697998,9.2121582,7.7781677,20.5116882,7.7781677,33.903595
		C329.2198792,466.0484924,324.7067871,480.4606018,315.752594,493.2410278z"/>
</g>
</svg>
